<?xml version="1.0" standalone="no"?><!DOCTYPE svg PUBLIC "-//W3C//DTD SVG 1.1//EN" "http://www.w3.org/Graphics/SVG/1.1/DTD/svg11.dtd"><svg height="540" legacy-metrics="false" node-id="1" sillyvg="true" template-height="540" template-width="960" version="1.1" viewBox="0 0 960 540" width="960" xmlns="http://www.w3.org/2000/svg" xmlns:xlink="http://www.w3.org/1999/xlink"><defs node-id="69"></defs><path d="M -7.83 -97.48 L 954.17 -97.48 L 954.17 642.52 L -7.83 642.52 Z" fill="none" node-id="73" stroke="none" target-height="740" target-width="962" target-x="-7.8320923" target-y="-97.48242"></path><g node-id="196"><path d="M -1163.64 -656.36 L -79.96 -656.36 L -79.96 -33.72 L -1163.64 -33.72 Z" fill="#ffffff" fill-rule="nonzero" group-id="1" node-id="76" stroke="none" target-height="622.64276" target-width="1083.6768" target-x="-1163.6361" target-y="-656.3638"></path><path d="M 697.22 410.59 L 740.32 454.61 C 754.87 469.47 754.87 493.56 740.32 508.43 L 740.32 508.43 C 725.78 523.28 702.19 523.28 687.64 508.43 L 644.54 464.40 C 629.99 449.54 629.99 425.45 644.54 410.59 L 644.54 410.59 C 659.09 395.73 682.67 395.73 697.22 410.59 Z" fill="#92d9f5" fill-rule="nonzero" group-id="1" id="矩形_13" node-id="5" stroke="none" target-height="127.55875" target-width="124.88135" target-x="629.9896" target-y="395.72586"></path><path d="M 170.23 71.53 L 286.76 190.57 C 298.23 202.28 298.23 221.26 286.76 232.97 L 286.76 232.97 C 275.30 244.67 256.72 244.67 245.26 232.97 L 128.72 113.93 C 117.26 102.22 117.26 83.24 128.72 71.53 L 128.72 71.53 C 140.18 59.83 158.76 59.83 170.23 71.53 Z" fill="#92d9f5" fill-rule="nonzero" group-id="1" id="矩形_15" node-id="6" stroke="none" target-height="184.8488" target-width="180.96837" target-x="117.25783" target-y="59.825153"></path><path d="M 269.56 33.48 L 386.10 152.52 C 397.56 164.23 397.56 183.21 386.10 194.92 L 386.10 194.92 C 374.64 206.62 356.06 206.62 344.59 194.92 L 228.06 75.88 C 216.59 64.17 216.59 45.19 228.06 33.48 L 228.06 33.48 C 239.52 21.77 258.10 21.77 269.56 33.48 Z" fill="#92d9f5" fill-rule="nonzero" group-id="1" id="矩形_16" node-id="7" stroke="none" target-height="184.84879" target-width="180.9684" target-x="216.59492" target-y="21.774775"></path><path d="M 698.76 302.83 L 763.41 368.87 C 772.01 377.65 772.01 391.89 763.41 400.67 L 763.41 400.67 C 754.82 409.45 740.88 409.45 732.28 400.67 L 667.63 334.63 C 659.03 325.85 659.03 311.61 667.63 302.83 L 667.63 302.83 C 676.22 294.05 690.16 294.05 698.76 302.83 Z" fill="#92d9f5" fill-rule="nonzero" group-id="1" id="矩形_14" node-id="8" stroke="none" target-height="115.39874" target-width="112.975525" target-x="659.03217" target-y="294.04947"></path><path d="M 735.06 277.60 C 735.06 431.71 612.75 556.64 461.88 556.64 C 311.01 556.64 188.70 431.71 188.70 277.60 C 188.70 123.49 311.01 -1.44 461.88 -1.44 C 612.75 -1.44 735.06 123.49 735.06 277.60 Z" fill="#92d9f5" fill-rule="nonzero" group-id="1" id="椭圆_1" node-id="9" stroke="none" target-height="558.0724" target-width="546.35376" target-x="188.70273" target-y="-1.4359941"></path><g node-id="197"><path d="M 388.51 362.93 L 535.25 362.93 L 535.25 470.16 L 388.51 470.16 Z" fill="#b6bdc6" fill-rule="nonzero" group-id="1,2" node-id="84" stroke-linecap="butt" stroke-width="1" target-height="107.23291" target-width="146.7479" target-x="388.50565" target-y="362.9253"></path><path d="M 535.25 470.16 L 388.51 470.16 L 388.51 362.93 L 535.25 362.93 L 535.25 470.16 Z M 411.08 447.10 L 512.68 447.10 L 512.68 385.99 L 411.08 385.99 L 411.08 447.10 Z" fill="#3d3d63" fill-rule="nonzero" group-id="1,2" node-id="86" stroke-linecap="butt" stroke-width="1" target-height="107.23291" target-width="146.7479" target-x="388.50565" target-y="362.9253"></path></g><g node-id="198"><path d="M 299.33 81.58 L 624.43 81.58 L 629.12 81.84 L 633.59 82.53 L 637.88 83.66 L 642.01 85.21 L 645.98 87.17 L 649.69 89.47 L 653.14 92.10 L 656.36 95.09 L 659.28 98.38 L 661.86 101.91 L 664.11 105.69 L 666.04 109.75 L 667.55 113.97 L 668.65 118.35 L 669.33 122.92 L 669.58 127.70 L 669.58 353.70 L 669.33 358.49 L 668.65 363.06 L 667.55 367.44 L 666.04 371.65 L 664.11 375.72 L 661.86 379.50 L 659.28 383.03 L 656.36 386.31 L 653.14 389.30 L 649.69 391.94 L 645.98 394.23 L 642.01 396.20 L 637.88 397.75 L 633.59 398.87 L 629.12 399.57 L 624.43 399.82 L 299.33 399.82 L 294.64 399.57 L 290.16 398.87 L 285.88 397.75 L 281.75 396.20 L 277.78 394.23 L 274.07 391.94 L 270.62 389.30 L 267.40 386.31 L 264.48 383.03 L 261.89 379.50 L 259.65 375.72 L 257.72 371.65 L 256.20 367.44 L 255.11 363.06 L 254.43 358.49 L 254.17 353.70 L 254.17 127.70 L 254.43 122.92 L 255.11 118.35 L 256.20 113.97 L 257.72 109.75 L 259.65 105.69 L 261.89 101.91 L 264.48 98.38 L 267.40 95.09 L 270.62 92.10 L 274.07 89.47 L 277.78 87.17 L 281.75 85.21 L 285.88 83.66 L 290.16 82.53 L 294.64 81.84 L 299.33 81.58 Z" fill="#8becef" fill-rule="nonzero" group-id="1,3" node-id="90" stroke-linecap="butt" stroke-width="1" target-height="318.23962" target-width="415.40942" target-x="254.17487" target-y="81.58305"></path><path d="M 624.43 399.82 L 299.33 399.82 L 294.65 399.57 L 290.18 398.87 L 285.89 397.75 L 281.77 396.19 L 277.79 394.23 L 274.09 391.93 L 270.63 389.29 L 267.41 386.30 L 264.49 383.01 L 261.90 379.48 L 259.65 375.70 L 257.73 371.64 L 256.21 367.42 L 255.11 363.05 L 254.43 358.48 L 254.17 353.70 L 254.17 127.70 L 254.43 122.92 L 255.11 118.36 L 256.21 113.98 L 257.73 109.77 L 259.65 105.71 L 261.90 101.92 L 264.49 98.39 L 267.41 95.11 L 270.63 92.12 L 274.09 89.48 L 277.79 87.18 L 281.77 85.21 L 285.89 83.66 L 290.18 82.53 L 294.65 81.84 L 299.33 81.58 L 624.43 81.58 L 629.11 81.84 L 633.58 82.53 L 637.87 83.66 L 641.99 85.21 L 645.97 87.18 L 649.67 89.48 L 653.13 92.12 L 656.34 95.11 L 659.27 98.39 L 661.85 101.92 L 664.11 105.71 L 666.03 109.77 L 667.55 113.98 L 668.65 118.36 L 669.33 122.92 L 669.58 127.70 L 669.58 353.70 L 669.33 358.48 L 668.65 363.05 L 667.55 367.42 L 666.03 371.64 L 664.11 375.70 L 661.85 379.48 L 659.27 383.01 L 656.34 386.30 L 653.13 389.29 L 649.67 391.93 L 645.97 394.23 L 641.99 396.19 L 637.87 397.75 L 633.58 398.87 L 629.11 399.57 L 624.43 399.82 Z M 299.33 104.64 L 295.21 105.04 L 291.44 106.09 L 287.94 107.80 L 284.77 110.09 L 282.08 112.84 L 279.84 116.07 L 278.17 119.65 L 277.14 123.50 L 276.75 127.70 L 276.75 353.70 L 277.14 357.90 L 278.17 361.76 L 279.84 365.33 L 282.08 368.57 L 284.77 371.31 L 287.94 373.61 L 291.44 375.32 L 295.21 376.37 L 299.33 376.76 L 624.43 376.76 L 628.55 376.37 L 632.32 375.32 L 635.82 373.61 L 638.99 371.31 L 641.68 368.57 L 643.92 365.33 L 645.59 361.76 L 646.62 357.90 L 647.01 353.70 L 647.01 127.70 L 646.62 123.50 L 645.59 119.65 L 643.92 116.07 L 641.68 112.84 L 638.99 110.09 L 635.82 107.80 L 632.32 106.09 L 628.55 105.04 L 624.43 104.64 L 299.33 104.64 Z" fill="#3d3d63" fill-rule="nonzero" group-id="1,3" node-id="92" stroke-linecap="butt" stroke-width="1" target-height="318.23962" target-width="415.40942" target-x="254.17487" target-y="81.58305"></path></g><g node-id="199"><path d="M 282.96 296.34 L 646.54 296.15 L 659.24 304.60 L 669.58 353.70 L 669.33 358.49 L 668.65 363.06 L 667.55 367.44 L 666.04 371.65 L 664.11 375.72 L 661.86 379.50 L 659.28 383.03 L 656.36 386.31 L 653.14 389.30 L 649.69 391.94 L 645.98 394.23 L 642.01 396.20 L 637.88 397.75 L 633.59 398.87 L 629.12 399.57 L 624.43 399.82 L 299.33 399.82 L 294.64 399.57 L 290.16 398.87 L 285.88 397.75 L 281.75 396.20 L 277.78 394.23 L 274.07 391.94 L 270.62 389.30 L 267.40 386.31 L 264.48 383.03 L 261.89 379.50 L 259.65 375.72 L 257.72 371.65 L 256.20 367.44 L 255.11 363.06 L 254.43 358.49 L 254.17 353.70 L 254.17 317.52 L 273.51 313.63 L 282.96 296.34 Z" fill="#e5e5e5" fill-rule="nonzero" group-id="1,4" node-id="96" stroke-linecap="butt" stroke-width="1" target-height="103.67694" target-width="415.40942" target-x="254.17487" target-y="296.14572"></path><path d="M 624.43 399.82 L 299.33 399.82 L 294.65 399.57 L 290.18 398.87 L 285.89 397.75 L 281.77 396.19 L 277.79 394.23 L 274.09 391.93 L 270.63 389.29 L 267.41 386.30 L 264.49 383.01 L 261.90 379.48 L 259.65 375.70 L 257.73 371.64 L 256.21 367.42 L 255.11 363.05 L 254.43 358.48 L 254.17 353.70 L 254.17 319.11 L 254.56 314.91 L 255.59 311.05 L 257.26 307.48 L 259.51 304.24 L 262.20 301.50 L 265.37 299.20 L 268.86 297.49 L 272.64 296.44 L 276.75 296.05 L 647.01 296.05 L 651.12 296.44 L 654.90 297.49 L 658.39 299.20 L 661.56 301.50 L 664.25 304.24 L 666.50 307.48 L 668.17 311.05 L 669.20 314.91 L 669.58 319.11 L 669.58 353.70 L 669.33 358.48 L 668.65 363.05 L 667.55 367.42 L 666.03 371.64 L 664.11 375.70 L 661.85 379.48 L 659.27 383.01 L 656.34 386.30 L 653.13 389.29 L 649.67 391.93 L 645.97 394.23 L 641.99 396.19 L 637.87 397.75 L 633.58 398.87 L 629.11 399.57 L 624.43 399.82 Z M 276.75 319.11 L 276.75 353.70 L 277.14 357.90 L 278.17 361.76 L 279.84 365.33 L 282.08 368.57 L 284.77 371.31 L 287.94 373.61 L 291.44 375.32 L 295.21 376.37 L 299.33 376.76 L 624.43 376.76 L 628.55 376.37 L 632.32 375.32 L 635.82 373.61 L 638.99 371.31 L 641.68 368.57 L 643.92 365.33 L 645.59 361.76 L 646.62 357.90 L 647.01 353.70 L 647.01 319.11 L 276.75 319.11 Z" fill="#3d3d63" fill-rule="nonzero" group-id="1,4" node-id="98" stroke-linecap="butt" stroke-width="1" target-height="103.7738" target-width="415.40942" target-x="254.17487" target-y="296.04883"></path></g><path d="M 411.08 399.82 L 512.68 399.82 L 512.68 422.88 L 411.08 422.88 Z" fill="#8f969e" fill-rule="nonzero" group-id="1" id="矩形_12" node-id="19" stroke="none" target-height="23.060852" target-width="101.594696" target-x="411.08224" target-y="399.82263"></path><path d="M 591.70 470.16 L 332.06 470.16 C 325.83 470.16 320.78 464.99 320.78 458.63 C 320.78 452.26 325.83 447.10 332.06 447.10 L 591.70 447.10 C 597.93 447.10 602.98 452.26 602.98 458.63 C 602.98 464.99 597.93 470.16 591.70 470.16 Z" fill="#3d3d63" fill-rule="nonzero" group-id="1" node-id="102" stroke="none" target-height="23.060852" target-width="282.2075" target-x="320.77585" target-y="447.0973"></path><path d="M 547.67 500.14 L 437.05 500.14 C 433.93 500.14 431.40 497.56 431.40 494.37 C 431.40 491.19 433.93 488.61 437.05 488.61 L 547.67 488.61 C 550.79 488.61 553.31 491.19 553.31 494.37 C 553.31 497.56 550.79 500.14 547.67 500.14 Z" fill="#3d3d63" fill-rule="nonzero" group-id="1" node-id="104" stroke="none" target-height="11.530426" target-width="121.913635" target-x="431.40125" target-y="488.60687"></path><path d="M 584.92 527.81 L 461.88 527.81 C 458.76 527.81 456.24 525.23 456.24 522.05 C 456.24 518.86 458.76 516.28 461.88 516.28 L 584.92 516.28 C 588.04 516.28 590.57 518.86 590.57 522.05 C 590.57 525.23 588.04 527.81 584.92 527.81 Z" fill="#3d3d63" fill-rule="nonzero" group-id="1" node-id="106" stroke="none" target-height="11.5303955" target-width="134.33078" target-x="456.2355" target-y="516.27985"></path><path d="M 374.96 500.14 L 299.33 500.14 C 296.21 500.14 293.68 497.56 293.68 494.37 C 293.68 491.19 296.21 488.61 299.33 488.61 L 374.96 488.61 C 378.08 488.61 380.60 491.19 380.60 494.37 C 380.60 497.56 378.08 500.14 374.96 500.14 Z" fill="#3d3d63" fill-rule="nonzero" group-id="1" node-id="108" stroke="none" target-height="11.530426" target-width="86.91992" target-x="293.68387" target-y="488.60687"></path><path d="M 711.35 527.81 L 648.14 527.81 C 645.02 527.81 642.49 525.23 642.49 522.05 C 642.49 518.86 645.02 516.28 648.14 516.28 L 711.35 516.28 C 714.47 516.28 717.00 518.86 717.00 522.05 C 717.00 525.23 714.47 527.81 711.35 527.81 Z" fill="#3d3d63" fill-rule="nonzero" group-id="1" node-id="110" stroke="none" target-height="11.5303955" target-width="74.50281" target-x="642.4925" target-y="516.27985"></path><path d="M 599.60 327.18 L 647.01 327.18 L 647.01 336.41 L 599.60 336.41 Z" fill="#8f969e" fill-rule="nonzero" group-id="1" node-id="112" stroke="none" target-height="9.224335" target-width="47.410828" target-x="599.597" target-y="327.181"></path><path d="M 617.66 346.78 L 647.01 346.78 L 647.01 356.01 L 617.66 356.01 Z" fill="#8f969e" fill-rule="nonzero" group-id="1" node-id="114" stroke="none" target-height="9.224335" target-width="29.34961" target-x="617.65826" target-y="346.78268"></path><path d="M 599.60 127.70 L 647.01 127.70 L 647.01 136.93 L 599.60 136.93 Z" fill="#67b3ff" fill-rule="nonzero" group-id="1,5" node-id="117" stroke-linecap="butt" stroke-width="1" target-height="9.224342" target-width="47.410828" target-x="599.597" target-y="127.70475"></path><path d="M 617.66 147.31 L 647.01 147.31 L 647.01 156.53 L 617.66 156.53 Z" fill="#67b3ff" fill-rule="nonzero" group-id="1,5" node-id="119" stroke-linecap="butt" stroke-width="1" target-height="9.22435" target-width="29.34961" target-x="617.65826" target-y="147.30644"></path><path d="M 599.60 174.98 L 647.01 174.98 L 647.01 184.20 L 599.60 184.20 Z" fill="#67b3ff" fill-rule="nonzero" group-id="1,6" node-id="123" stroke-linecap="butt" stroke-width="1" target-height="9.224335" target-width="47.410828" target-x="599.597" target-y="174.97945"></path><path d="M 617.66 194.58 L 647.01 194.58 L 647.01 203.81 L 617.66 203.81 Z" fill="#67b3ff" fill-rule="nonzero" group-id="1,6" node-id="125" stroke-linecap="butt" stroke-width="1" target-height="9.224335" target-width="29.34961" target-x="617.65826" target-y="194.58118"></path><path d="M 599.60 222.25 L 647.01 222.25 L 647.01 231.48 L 599.60 231.48 Z" fill="#67b3ff" fill-rule="nonzero" group-id="1,7" node-id="129" stroke-linecap="butt" stroke-width="1" target-height="9.224335" target-width="47.410828" target-x="599.597" target-y="222.25418"></path><path d="M 617.66 241.86 L 647.01 241.86 L 647.01 251.08 L 617.66 251.08 Z" fill="#67b3ff" fill-rule="nonzero" group-id="1,7" node-id="131" stroke-linecap="butt" stroke-width="1" target-height="9.224335" target-width="29.34961" target-x="617.65826" target-y="241.85591"></path><path d="M 599.60 269.53 L 647.01 269.53 L 647.01 278.75 L 599.60 278.75 Z" fill="#67b3ff" fill-rule="nonzero" group-id="1" node-id="134" stroke="none" target-height="9.224335" target-width="47.410828" target-x="599.597" target-y="269.52893"></path><path d="M 415.60 527.81 L 239.50 527.81 C 236.38 527.81 233.86 525.23 233.86 522.05 C 233.86 518.86 236.38 516.28 239.50 516.28 L 415.60 516.28 C 418.71 516.28 421.24 518.86 421.24 522.05 C 421.24 525.23 418.71 527.81 415.60 527.81 Z" fill="#3d3d63" fill-rule="nonzero" group-id="1" node-id="136" stroke="none" target-height="11.5303955" target-width="187.38579" target-x="233.85588" target-y="516.27985"></path><path d="M 353.51 161.14 C 351.20 161.14 348.89 160.24 347.13 158.44 L 309.87 120.39 C 306.35 116.79 306.35 110.95 309.87 107.35 C 313.40 103.74 319.12 103.74 322.65 107.35 L 359.90 145.40 C 363.42 149.00 363.42 154.84 359.90 158.44 C 358.13 160.24 355.82 161.14 353.51 161.14 Z" fill="#d4feff" fill-rule="nonzero" group-id="1" node-id="138" stroke="none" target-height="57.398438" target-width="57.077026" target-x="306.34705" target-y="103.74455"></path><path d="M 359.16 218.80 C 356.85 218.80 354.53 217.89 352.77 216.09 L 279.40 141.15 C 275.87 137.54 275.87 131.70 279.40 128.10 C 282.92 124.50 288.64 124.50 292.17 128.10 L 365.54 203.05 C 369.07 206.65 369.07 212.49 365.54 216.09 C 363.78 217.89 361.47 218.80 359.16 218.80 Z" fill="#d4feff" fill-rule="nonzero" group-id="1" node-id="140" stroke="none" target-height="94.295784" target-width="93.199585" target-x="275.86868" target-y="124.499275"></path><path d="M 406.57 500.14 C 405.08 500.14 403.63 499.53 402.57 498.44 C 401.52 497.37 400.92 495.89 400.92 494.37 C 400.92 492.85 401.52 491.37 402.57 490.29 C 403.62 489.22 405.08 488.61 406.57 488.61 C 408.06 488.61 409.51 489.22 410.56 490.29 C 411.61 491.37 412.21 492.85 412.21 494.37 C 412.21 495.89 411.61 497.37 410.56 498.44 C 409.51 499.53 408.06 500.14 406.57 500.14 Z" fill="#3d3d63" fill-rule="nonzero" group-id="1" node-id="142" stroke="none" target-height="11.530426" target-width="11.2883" target-x="400.92276" target-y="488.60687"></path><path d="M 621.04 527.81 C 619.56 527.81 618.11 527.20 617.05 526.12 C 616.00 525.04 615.40 523.57 615.40 522.05 C 615.40 520.52 616.00 519.05 617.05 517.96 C 618.10 516.89 619.55 516.28 621.04 516.28 C 622.53 516.28 623.99 516.89 625.04 517.96 C 626.09 519.05 626.69 520.53 626.69 522.05 C 626.69 523.57 626.09 525.04 625.04 526.12 C 623.98 527.20 622.52 527.81 621.04 527.81 Z" fill="#3d3d63" fill-rule="nonzero" group-id="1" node-id="144" stroke="none" target-height="11.5303955" target-width="11.28833" target-x="615.4006" target-y="516.27985"></path><path d="M 473.17 347.94 C 473.17 354.30 468.11 359.47 461.88 359.47 C 455.65 359.47 450.59 354.30 450.59 347.94 C 450.59 341.57 455.65 336.41 461.88 336.41 C 468.11 336.41 473.17 341.57 473.17 347.94 Z" fill="#3a3644" fill-rule="nonzero" group-id="1" id="椭圆_8" node-id="42" stroke="none" target-height="23.060852" target-width="22.5766" target-x="450.59128" target-y="336.4053"></path><path d="M 825.36 326.27 C 824.79 326.27 824.21 326.05 823.77 325.60 L 799.82 301.14 C 798.94 300.24 798.94 298.78 799.82 297.88 L 823.77 273.42 C 824.65 272.52 826.08 272.52 826.96 273.42 L 850.91 297.88 C 851.79 298.78 851.79 300.24 850.91 301.14 L 826.96 325.60 C 826.52 326.05 825.94 326.27 825.36 326.27 Z M 804.61 299.51 L 825.36 320.71 L 846.12 299.51 L 825.36 278.31 L 804.61 299.51 Z" fill="#92d9f5" fill-rule="nonzero" group-id="1" node-id="147" stroke="none" target-height="53.75598" target-width="52.84729" target-x="798.9394" target-y="272.51755"></path><path d="M 177.53 218.68 C 176.95 218.68 176.37 218.45 175.93 218.00 L 164.76 206.59 C 163.88 205.69 163.88 204.23 164.76 203.33 L 175.93 191.92 C 176.81 191.01 178.24 191.01 179.12 191.92 L 190.30 203.33 C 191.18 204.23 191.18 205.69 190.30 206.59 L 179.12 218.00 C 178.68 218.45 178.11 218.68 177.53 218.68 Z M 169.55 204.96 L 177.53 213.11 L 185.51 204.96 L 177.53 196.81 L 169.55 204.96 Z" fill="#92d9f5" fill-rule="nonzero" group-id="1" node-id="149" stroke="none" target-height="27.664948" target-width="27.304138" target-x="163.87622" target-y="191.01482"></path><path d="M 700.06 345.51 C 699.46 345.51 698.89 345.27 698.47 344.84 L 687.29 333.42 C 686.41 332.52 686.41 331.06 687.29 330.16 L 698.47 318.75 C 699.35 317.85 700.78 317.85 701.66 318.75 L 712.83 330.16 C 713.71 331.06 713.71 332.52 712.83 333.42 L 701.66 344.84 C 701.24 345.27 700.66 345.51 700.06 345.51 Z M 692.08 331.79 L 700.06 339.95 L 708.04 331.79 L 700.06 323.64 L 692.08 331.79 Z" fill="#ffffff" fill-rule="nonzero" group-id="1" node-id="151" stroke="none" target-height="27.666077" target-width="27.304138" target-x="686.41077" target-y="317.8483"></path><path d="M 534.12 44.57 C 533.55 44.57 532.97 44.35 532.53 43.89 L 521.35 32.48 C 520.47 31.58 520.47 30.12 521.35 29.22 L 532.53 17.81 C 533.41 16.91 534.84 16.91 535.72 17.81 L 546.90 29.22 C 547.78 30.12 547.78 31.58 546.90 32.48 L 535.72 43.89 C 535.28 44.35 534.70 44.57 534.12 44.57 Z M 526.14 30.85 L 534.12 39.00 L 542.11 30.85 L 534.12 22.70 L 526.14 30.85 Z" fill="#ffffff" fill-rule="nonzero" group-id="1" node-id="153" stroke="none" target-height="27.66494" target-width="27.304138" target-x="520.4727" target-y="16.90551"></path><path d="M 177.53 571.71 L 177.24 576.06 L 176.42 580.16 L 175.09 584.05 L 173.28 587.73 L 171.07 591.08 L 168.44 594.13 L 165.45 596.81 L 162.17 599.07 L 158.57 600.92 L 154.77 602.28 L 150.75 603.11 L 146.49 603.42 L 142.22 603.11 L 138.21 602.28 L 134.40 600.92 L 130.80 599.07 L 127.52 596.81 L 124.54 594.13 L 121.91 591.08 L 119.70 587.73 L 117.88 584.05 L 116.56 580.16 L 115.74 576.06 L 115.45 571.71 L 115.74 567.35 L 116.56 563.25 L 117.88 559.36 L 119.70 555.68 L 121.91 552.33 L 124.54 549.29 L 127.52 546.60 L 130.80 544.34 L 134.40 542.49 L 138.21 541.13 L 142.22 540.30 L 146.49 540.00 L 150.75 540.30 L 154.77 541.13 L 158.57 542.49 L 162.17 544.34 L 165.45 546.60 L 168.44 549.29 L 171.07 552.33 L 173.28 555.68 L 175.09 559.36 L 176.42 563.25 L 177.24 567.35 L 177.53 571.71 Z" fill="#ffffff" fill-rule="nonzero" group-id="1,8" hidden="true" node-id="156" stroke-linecap="butt" stroke-width="1" target-height="63.419983" target-width="62.08" target-x="115.44829" target-y="540" visibility="hidden"></path><path d="M 123.23 463.24 L 118.97 462.93 L 114.96 462.10 L 111.16 460.74 L 107.56 458.89 L 104.28 456.62 L 101.29 453.94 L 98.66 450.89 L 96.45 447.54 L 94.63 443.86 L 93.30 439.97 L 92.48 435.88 L 92.19 431.53 L 92.48 427.18 L 93.30 423.08 L 94.63 419.20 L 96.45 415.52 L 98.66 412.17 L 101.29 409.12 L 104.28 406.43 L 107.56 404.17 L 111.16 402.31 L 114.96 400.96 L 118.97 400.12 L 123.23 399.82 L 127.49 400.12 L 131.50 400.96 L 135.30 402.31 L 138.90 404.17 L 142.19 406.43 L 145.17 409.12 L 147.80 412.17 L 150.02 415.52 L 151.83 419.20 L 153.16 423.08 L 153.98 427.18 L 154.27 431.53 L 153.98 435.88 L 153.16 439.97 L 151.83 443.86 L 150.02 447.54 L 147.80 450.89 L 145.17 453.94 L 142.19 456.62 L 138.90 458.89 L 135.30 460.74 L 131.50 462.10 L 127.49 462.93 L 123.23 463.24 Z M 123.23 404.43 L 119.59 404.69 L 116.17 405.40 L 112.91 406.56 L 109.84 408.15 L 107.03 410.08 L 104.48 412.38 L 102.23 414.98 L 100.34 417.85 L 98.79 420.99 L 97.65 424.31 L 96.96 427.81 L 96.70 431.53 L 96.96 435.24 L 97.65 438.74 L 98.79 442.06 L 100.34 445.21 L 102.23 448.07 L 104.48 450.68 L 107.03 452.97 L 109.84 454.91 L 112.91 456.49 L 116.17 457.65 L 119.59 458.36 L 123.23 458.62 L 126.87 458.36 L 130.30 457.65 L 133.55 456.49 L 136.62 454.91 L 139.43 452.97 L 141.98 450.68 L 144.23 448.07 L 146.12 445.21 L 147.67 442.06 L 148.81 438.74 L 149.51 435.24 L 149.76 431.53 L 149.51 427.81 L 148.81 424.31 L 147.67 420.99 L 146.12 417.85 L 144.23 414.98 L 141.98 412.38 L 139.43 410.08 L 136.62 408.15 L 133.55 406.56 L 130.30 405.40 L 126.87 404.69 L 123.23 404.43 Z" fill="#92d9f5" fill-rule="nonzero" group-id="1,8" node-id="158" stroke="none" target-height="63.419983" target-width="62.08" target-x="92.19328" target-y="399.8227"></path><path d="M 169.51 97.15 L 169.25 99.99 L 168.56 102.59 L 167.43 105.01 L 165.92 107.19 L 164.10 109.04 L 161.96 110.59 L 159.60 111.74 L 157.05 112.45 L 154.27 112.72 L 151.49 112.45 L 148.94 111.74 L 146.58 110.59 L 144.44 109.04 L 142.63 107.19 L 141.11 105.01 L 139.99 102.59 L 139.29 99.99 L 139.03 97.15 L 139.29 94.31 L 139.99 91.70 L 141.11 89.29 L 142.63 87.11 L 144.44 85.26 L 146.58 83.71 L 148.94 82.56 L 151.49 81.85 L 154.27 81.58 L 157.05 81.85 L 159.60 82.56 L 161.96 83.71 L 164.10 85.26 L 165.92 87.11 L 167.43 89.29 L 168.56 91.70 L 169.25 94.31 L 169.51 97.15 Z" fill="none" group-id="1,9" node-id="162" stroke-linecap="butt" stroke-width="1" target-height="31.132133" target-width="30.478409" target-x="139.03407" target-y="81.58307"></path><path d="M 154.27 112.72 L 151.50 112.45 L 148.95 111.74 L 146.59 110.59 L 144.45 109.04 L 142.63 107.18 L 141.12 105.00 L 139.99 102.59 L 139.29 99.99 L 139.03 97.15 L 139.29 94.31 L 139.99 91.71 L 141.12 89.30 L 142.63 87.11 L 144.45 85.26 L 146.59 83.71 L 148.95 82.56 L 151.50 81.85 L 154.27 81.58 L 157.05 81.85 L 159.60 82.56 L 161.96 83.71 L 164.10 85.26 L 165.91 87.11 L 167.43 89.30 L 168.56 91.71 L 169.25 94.31 L 169.51 97.15 L 169.25 99.99 L 168.56 102.59 L 167.43 105.00 L 165.91 107.18 L 164.10 109.04 L 161.96 110.59 L 159.60 111.74 L 157.05 112.45 L 154.27 112.72 Z M 154.27 86.20 L 152.32 86.38 L 150.53 86.88 L 148.87 87.69 L 146.69 89.41 L 145.02 91.62 L 144.22 93.32 L 143.73 95.15 L 143.55 97.15 L 143.73 99.15 L 144.22 100.98 L 145.02 102.67 L 146.69 104.89 L 148.87 106.61 L 150.53 107.42 L 152.32 107.92 L 154.27 108.10 L 156.23 107.92 L 158.02 107.42 L 159.68 106.61 L 161.85 104.89 L 163.53 102.67 L 164.33 100.98 L 164.81 99.15 L 165.00 97.15 L 164.81 95.15 L 164.33 93.32 L 163.53 91.62 L 161.85 89.41 L 159.68 87.69 L 158.02 86.88 L 156.23 86.38 L 154.27 86.20 Z" fill="#ffffff" fill-rule="nonzero" group-id="1,9" node-id="164" stroke-linecap="butt" stroke-width="1" target-height="31.132133" target-width="30.478409" target-x="139.03407" target-y="81.58307"></path><path d="M 295.94 485.72 L 295.68 488.57 L 294.99 491.17 L 293.86 493.58 L 292.35 495.77 L 290.53 497.62 L 288.39 499.17 L 286.03 500.32 L 283.48 501.03 L 280.70 501.29 L 277.92 501.03 L 275.37 500.32 L 273.01 499.17 L 270.87 497.62 L 269.06 495.77 L 267.54 493.58 L 266.42 491.17 L 265.72 488.57 L 265.46 485.72 L 265.72 482.88 L 266.42 480.28 L 267.54 477.87 L 269.06 475.68 L 270.87 473.83 L 273.01 472.28 L 275.37 471.13 L 277.92 470.42 L 280.70 470.16 L 283.48 470.42 L 286.03 471.13 L 288.39 472.28 L 290.53 473.83 L 292.35 475.68 L 293.86 477.87 L 294.99 480.28 L 295.68 482.88 L 295.94 485.72 Z" fill="none" group-id="1,10" node-id="168" stroke-linecap="butt" stroke-width="1" target-height="31.13211" target-width="30.478424" target-x="265.46307" target-y="470.15814"></path><path d="M 280.70 501.29 L 277.93 501.03 L 275.38 500.31 L 273.02 499.16 L 270.88 497.61 L 269.06 495.76 L 267.55 493.57 L 266.42 491.16 L 265.72 488.56 L 265.46 485.72 L 265.72 482.89 L 266.42 480.29 L 267.55 477.87 L 269.06 475.69 L 270.88 473.83 L 273.02 472.29 L 275.38 471.13 L 277.93 470.42 L 280.70 470.16 L 283.48 470.42 L 286.03 471.13 L 288.39 472.29 L 290.53 473.83 L 292.34 475.69 L 293.86 477.87 L 294.99 480.29 L 295.68 482.89 L 295.94 485.72 L 295.68 488.56 L 294.99 491.16 L 293.86 493.57 L 292.34 495.76 L 290.53 497.61 L 288.39 499.16 L 286.03 500.31 L 283.48 501.03 L 280.70 501.29 Z M 280.70 474.77 L 278.75 474.96 L 276.96 475.46 L 275.29 476.27 L 273.12 477.98 L 271.44 480.20 L 270.65 481.90 L 270.16 483.73 L 269.98 485.72 L 270.16 487.72 L 270.65 489.55 L 271.44 491.25 L 273.12 493.47 L 275.29 495.18 L 276.96 495.99 L 278.75 496.49 L 280.70 496.68 L 282.66 496.49 L 284.45 495.99 L 286.11 495.18 L 288.28 493.47 L 289.96 491.25 L 290.75 489.55 L 291.24 487.72 L 291.43 485.72 L 291.24 483.73 L 290.75 481.90 L 289.96 480.20 L 288.28 477.98 L 286.11 476.27 L 284.45 475.46 L 282.66 474.96 L 280.70 474.77 Z" fill="#ffffff" fill-rule="nonzero" group-id="1,10" node-id="170" stroke-linecap="butt" stroke-width="1" target-height="31.13211" target-width="30.478424" target-x="265.46307" target-y="470.15814"></path><path d="M 435.92 79.85 L 435.73 81.85 L 435.25 83.69 L 434.45 85.38 L 432.78 87.60 L 430.61 89.31 L 428.94 90.12 L 427.15 90.62 L 425.19 90.81 L 423.24 90.62 L 421.44 90.12 L 419.78 89.31 L 417.61 87.60 L 415.93 85.38 L 415.14 83.69 L 414.65 81.85 L 414.47 79.85 L 414.65 77.85 L 415.14 76.02 L 415.93 74.32 L 417.61 72.11 L 419.78 70.40 L 421.44 69.59 L 423.24 69.09 L 425.19 68.90 L 427.15 69.09 L 428.94 69.59 L 430.61 70.40 L 432.78 72.11 L 434.45 74.32 L 435.25 76.02 L 435.73 77.85 L 435.92 79.85 Z" fill="none" group-id="1,11" node-id="174" stroke-linecap="butt" stroke-width="1" target-height="21.907799" target-width="21.447754" target-x="414.46872" target-y="68.89962"></path><path d="M 425.19 90.81 L 423.24 90.62 L 421.45 90.12 L 419.78 89.31 L 417.61 87.60 L 415.94 85.38 L 415.14 83.68 L 414.65 81.85 L 414.47 79.85 L 414.65 77.86 L 415.14 76.03 L 415.94 74.33 L 417.61 72.11 L 419.78 70.40 L 421.45 69.59 L 423.24 69.09 L 425.19 68.90 L 427.15 69.09 L 428.94 69.59 L 430.60 70.40 L 432.77 72.11 L 434.45 74.33 L 435.24 76.03 L 435.73 77.86 L 435.92 79.85 L 435.73 81.85 L 435.24 83.68 L 434.45 85.38 L 432.77 87.60 L 430.60 89.31 L 428.94 90.12 L 427.15 90.62 L 425.19 90.81 Z M 425.19 73.51 L 423.51 73.76 L 422.06 74.37 L 420.80 75.37 L 419.83 76.66 L 419.22 78.13 L 418.98 79.85 L 419.22 81.57 L 419.83 83.05 L 420.80 84.34 L 422.06 85.33 L 423.51 85.95 L 425.19 86.20 L 426.88 85.95 L 428.32 85.33 L 429.58 84.34 L 430.56 83.05 L 431.16 81.57 L 431.40 79.85 L 431.16 78.13 L 430.56 76.66 L 429.58 75.37 L 428.32 74.37 L 426.88 73.76 L 425.19 73.51 Z" fill="#ffffff" fill-rule="nonzero" group-id="1,11" node-id="176" stroke-linecap="butt" stroke-width="1" target-height="21.907799" target-width="21.447754" target-x="414.46872" target-y="68.89962"></path><path d="M 701.19 22.78 L 700.90 25.93 L 700.13 28.83 L 698.88 31.51 L 697.20 33.93 L 695.18 35.99 L 692.81 37.71 L 690.18 38.99 L 687.35 39.78 L 684.26 40.07 L 681.17 39.78 L 678.34 38.99 L 675.71 37.71 L 673.34 35.99 L 671.32 33.93 L 669.64 31.51 L 668.39 28.83 L 667.61 25.93 L 667.33 22.78 L 667.61 19.62 L 668.39 16.73 L 669.64 14.05 L 671.32 11.62 L 673.34 9.56 L 675.71 7.84 L 678.34 6.56 L 681.17 5.78 L 684.26 5.48 L 687.35 5.78 L 690.18 6.56 L 692.81 7.84 L 695.18 9.56 L 697.20 11.62 L 698.88 14.05 L 700.13 16.73 L 700.90 19.62 L 701.19 22.78 Z" fill="none" group-id="1,12" node-id="180" stroke-linecap="butt" stroke-width="1" target-height="34.591263" target-width="33.86487" target-x="667.3268" target-y="5.482327"></path><path d="M 684.26 40.07 L 681.17 39.78 L 678.34 38.99 L 675.72 37.71 L 673.34 35.99 L 671.33 33.93 L 669.64 31.50 L 668.39 28.82 L 667.61 25.93 L 667.33 22.78 L 667.61 19.63 L 668.39 16.74 L 669.64 14.06 L 671.33 11.63 L 673.34 9.57 L 675.72 7.85 L 678.34 6.57 L 681.17 5.78 L 684.26 5.48 L 687.35 5.78 L 690.18 6.57 L 692.80 7.85 L 695.18 9.57 L 697.19 11.63 L 698.88 14.06 L 700.13 16.74 L 700.90 19.63 L 701.19 22.78 L 700.90 25.93 L 700.13 28.82 L 698.88 31.50 L 697.19 33.93 L 695.18 35.99 L 692.80 37.71 L 690.18 38.99 L 687.35 39.78 L 684.26 40.07 Z M 684.26 10.09 L 682.00 10.31 L 679.92 10.89 L 678.00 11.83 L 676.25 13.09 L 674.78 14.60 L 673.54 16.38 L 672.62 18.35 L 672.05 20.47 L 671.84 22.78 L 672.05 25.09 L 672.62 27.21 L 673.54 29.17 L 674.78 30.95 L 676.25 32.47 L 678.00 33.73 L 679.92 34.67 L 682.00 35.25 L 684.26 35.46 L 686.52 35.25 L 688.60 34.67 L 690.52 33.73 L 692.26 32.47 L 693.74 30.95 L 694.98 29.17 L 695.90 27.21 L 696.47 25.09 L 696.68 22.78 L 696.46 20.47 L 695.90 18.35 L 694.98 16.38 L 693.74 14.60 L 692.26 13.09 L 690.52 11.83 L 688.60 10.89 L 686.52 10.31 L 684.26 10.09 Z" fill="#92d9f5" fill-rule="nonzero" group-id="1,12" node-id="182" stroke-linecap="butt" stroke-width="1" target-height="34.591263" target-width="33.86487" target-x="667.3268" target-y="5.482327"></path><path d="M 345.61 8.94 L 345.24 11.72 L 344.22 14.18 L 342.63 16.28 L 340.58 17.90 L 338.17 18.94 L 335.45 19.32 L 332.73 18.94 L 330.32 17.90 L 328.27 16.28 L 326.68 14.18 L 325.66 11.72 L 325.29 8.94 L 325.66 6.16 L 326.68 3.70 L 328.27 1.60 L 330.32 -0.02 L 332.73 -1.06 L 335.45 -1.44 L 338.17 -1.06 L 340.58 -0.02 L 342.63 1.60 L 344.22 3.70 L 345.24 6.16 L 345.61 8.94 Z" fill="none" group-id="1,13" node-id="186" stroke-linecap="butt" stroke-width="1" target-height="20.754757" target-width="20.31894" target-x="325.29108" target-y="-1.435935"></path><path d="M 335.45 19.32 L 332.73 18.94 L 330.33 17.90 L 328.27 16.28 L 326.68 14.17 L 325.66 11.72 L 325.29 8.94 L 325.66 6.17 L 326.68 3.71 L 328.27 1.61 L 330.33 -0.02 L 332.73 -1.06 L 335.45 -1.44 L 338.17 -1.06 L 340.57 -0.02 L 342.63 1.61 L 344.22 3.71 L 345.24 6.17 L 345.61 8.94 L 345.24 11.72 L 344.22 14.17 L 342.63 16.28 L 340.57 17.90 L 338.17 18.94 L 335.45 19.32 Z M 335.45 3.18 L 333.92 3.40 L 332.61 3.96 L 331.46 4.87 L 330.57 6.04 L 330.02 7.38 L 329.81 8.94 L 330.02 10.50 L 330.57 11.85 L 331.46 13.02 L 332.61 13.92 L 333.92 14.48 L 335.45 14.71 L 336.98 14.48 L 338.29 13.92 L 339.44 13.02 L 340.33 11.85 L 340.88 10.50 L 341.09 8.94 L 340.88 7.38 L 340.33 6.04 L 339.44 4.87 L 338.29 3.96 L 336.98 3.40 L 335.45 3.18 Z" fill="#92d9f5" fill-rule="nonzero" group-id="1,13" node-id="188" stroke-linecap="butt" stroke-width="1" target-height="20.754757" target-width="20.31894" target-x="325.29108" target-y="-1.435935"></path><path d="M 735.06 196.89 L 734.77 200.04 L 734.00 202.94 L 732.74 205.62 L 731.06 208.04 L 729.05 210.10 L 726.67 211.82 L 724.05 213.10 L 721.21 213.89 L 718.12 214.18 L 715.03 213.89 L 712.20 213.10 L 709.58 211.82 L 707.20 210.10 L 705.19 208.04 L 703.50 205.62 L 702.25 202.94 L 701.48 200.04 L 701.19 196.89 L 701.48 193.73 L 702.25 190.84 L 703.50 188.16 L 705.19 185.73 L 707.20 183.67 L 709.58 181.95 L 712.20 180.67 L 715.03 179.89 L 718.12 179.59 L 721.21 179.89 L 724.05 180.67 L 726.67 181.95 L 729.05 183.67 L 731.06 185.73 L 732.74 188.16 L 734.00 190.84 L 734.77 193.73 L 735.06 196.89 Z" fill="none" group-id="1,14" node-id="192" stroke-linecap="butt" stroke-width="1" target-height="34.591263" target-width="33.86493" target-x="701.19165" target-y="179.59166"></path><path d="M 718.12 214.18 L 715.04 213.89 L 712.21 213.10 L 709.58 211.82 L 707.21 210.10 L 705.19 208.04 L 703.51 205.61 L 702.25 202.93 L 701.48 200.04 L 701.19 196.89 L 701.48 193.74 L 702.25 190.84 L 703.51 188.16 L 705.19 185.74 L 707.21 183.68 L 709.58 181.96 L 712.21 180.68 L 715.04 179.89 L 718.12 179.59 L 721.21 179.89 L 724.04 180.68 L 726.66 181.96 L 729.04 183.68 L 731.06 185.74 L 732.74 188.16 L 734.00 190.84 L 734.77 193.74 L 735.06 196.89 L 734.77 200.04 L 734.00 202.93 L 732.74 205.61 L 731.06 208.04 L 729.04 210.10 L 726.66 211.82 L 724.04 213.10 L 721.21 213.89 L 718.12 214.18 Z M 718.12 184.20 L 715.86 184.42 L 713.79 185.00 L 711.86 185.94 L 710.12 187.20 L 708.64 188.71 L 707.40 190.49 L 706.49 192.46 L 705.92 194.58 L 705.71 196.89 L 705.92 199.20 L 706.49 201.32 L 707.40 203.28 L 708.64 205.06 L 710.12 206.57 L 711.86 207.84 L 713.79 208.78 L 715.86 209.35 L 718.12 209.57 L 720.39 209.35 L 722.46 208.78 L 724.39 207.84 L 726.13 206.57 L 727.61 205.06 L 728.84 203.28 L 729.76 201.32 L 730.33 199.20 L 730.54 196.89 L 730.33 194.58 L 729.76 192.46 L 728.84 190.49 L 727.61 188.71 L 726.13 187.20 L 724.39 185.94 L 722.46 185.00 L 720.39 184.42 L 718.12 184.20 Z" fill="#ffffff" fill-rule="nonzero" group-id="1,14" node-id="194" stroke-linecap="butt" stroke-width="1" target-height="34.591263" target-width="33.86493" target-x="701.19165" target-y="179.59166"></path></g></svg>